<?xml version="1.0" standalone="no"?>
<!DOCTYPE svg PUBLIC "-//W3C//DTD SVG 20010904//EN"
 "http://www.w3.org/TR/2001/REC-SVG-20010904/DTD/svg10.dtd">
<svg version="1.0" xmlns="http://www.w3.org/2000/svg"
 width="612.000000pt" height="408.000000pt" viewBox="0 0 612.000000 408.000000"
 preserveAspectRatio="xMidYMid meet">

<g transform="translate(0.000000,408.000000) scale(0.100000,-0.100000)"
fill="#000000" stroke="none">
<path d="M4493 3195 c0 -33 2 -45 4 -27 2 18 2 45 0 60 -2 15 -4 0 -4 -33z"/>
<path d="M3232 3069 c-29 -11 -61 -48 -62 -70 0 -9 9 -19 20 -22 16 -4 20 0
21 21 1 27 1 27 9 -3 6 -22 8 -25 9 -9 0 12 8 27 17 35 13 10 17 10 25 -2 5
-8 8 -25 7 -39 -2 -18 -9 -25 -25 -25 -13 0 -29 -9 -37 -20 -8 -11 -18 -16
-22 -12 -5 4 -2 12 6 17 13 8 12 10 -2 10 -9 0 -23 -14 -32 -31 -15 -29 -14
-31 4 -36 11 -3 20 -11 20 -19 0 -15 34 -36 44 -27 3 3 6 16 6 28 0 14 10 26
25 33 37 17 45 15 45 -11 0 -23 17 -47 32 -47 12 0 10 38 -4 60 -17 26 -1 41
48 45 36 3 37 3 20 -11 -11 -8 -15 -14 -10 -14 12 0 59 48 53 54 -8 8 -45 9
-72 1 -20 -5 -33 -3 -47 10 -18 16 -18 17 3 41 11 13 29 24 40 24 16 0 17 3 7
15 -14 17 -110 20 -148 4z"/>
<path d="M4440 3069 c0 -5 5 -7 10 -4 6 3 10 8 10 11 0 2 -4 4 -10 4 -5 0 -10
-5 -10 -11z"/>
<path d="M2950 2965 c0 -9 -10 -20 -22 -25 -20 -8 -18 -9 14 -9 20 -1 40 -5
43 -11 3 -5 12 -10 20 -10 15 0 10 35 -9 59 -9 11 -12 9 -17 -10 -7 -24 -7
-24 -8 -1 -1 24 -21 31 -21 7z"/>
<path d="M2795 2959 c-9 -14 -7 -15 40 -23 l40 -7 -30 20 c-34 24 -41 25 -50
10z"/>
<path d="M4622 2940 c0 -14 2 -19 5 -12 2 6 2 18 0 25 -3 6 -5 1 -5 -13z"/>
<path d="M2685 2903 c-4 -27 -17 -108 -31 -182 -13 -74 -22 -136 -20 -138 3
-4 23 63 31 107 25 132 40 260 32 260 -3 0 -9 -21 -12 -47z"/>
<path d="M3556 2873 c-20 -32 -59 -76 -86 -98 l-50 -40 31 -28 c42 -38 48 -31
58 69 0 7 9 14 19 16 24 7 87 117 74 130 -6 6 -23 -12 -46 -49z"/>
<path d="M4474 2800 c0 -58 1 -81 3 -52 2 28 2 76 0 105 -2 28 -3 5 -3 -53z"/>
<path d="M2995 2868 c-3 -12 -10 -44 -15 -70 -20 -97 -30 -139 -44 -196 -18
-67 -38 -189 -40 -246 -1 -22 -7 -41 -14 -44 -9 -3 -12 15 -12 62 0 36 -4 66
-9 66 -12 0 -21 -26 -21 -64 0 -17 -8 -42 -17 -56 -15 -21 -15 -23 -1 -17 9 3
24 0 33 -7 14 -10 15 -17 7 -33 -6 -11 -13 -40 -16 -64 -2 -24 -6 -54 -10 -67
-6 -27 21 -43 35 -21 8 13 13 5 10 -15 -4 -19 11 -66 19 -61 5 3 20 -9 34 -27
20 -26 28 -30 38 -20 28 28 74 -3 80 -53 l3 -30 -135 -1 c-74 -1 -123 1 -107
3 15 2 27 8 27 13 0 5 -15 6 -32 3 -18 -4 -43 -7 -55 -8 -13 0 -23 -3 -23 -7
0 -5 -12 -8 -26 -8 -24 0 -25 1 -8 18 17 16 17 17 -9 20 -15 2 -27 7 -27 12 0
4 9 6 20 3 11 -3 20 -1 20 5 0 6 -12 12 -27 14 -22 2 -29 9 -31 31 -2 18 1 27
10 27 23 0 44 60 38 110 -6 55 -30 70 -115 70 -34 0 -66 5 -73 12 -9 9 -12 9
-12 0 0 -6 -19 -17 -41 -24 -46 -13 -83 -60 -73 -90 3 -11 0 -18 -7 -18 -10 0
-10 -3 -1 -12 7 -7 12 -26 12 -43 0 -38 23 -73 53 -77 16 -2 22 -10 21 -25 0
-19 5 -23 33 -23 23 0 33 -5 33 -15 0 -10 -11 -15 -35 -15 -24 0 -35 -5 -35
-15 0 -8 7 -15 15 -15 8 0 15 5 15 11 0 5 5 7 12 3 6 -4 43 -7 82 -6 68 1 70
1 46 -14 -14 -8 -17 -13 -7 -10 10 3 17 0 17 -9 0 -7 -22 -21 -49 -30 -27 -9
-55 -23 -61 -31 -10 -12 -8 -14 16 -14 29 0 29 0 -11 -25 -49 -30 -55 -30 -55
-5 0 11 -4 20 -8 20 -5 0 -7 -12 -5 -27 3 -22 -6 -38 -41 -75 -26 -27 -58 -78
-76 -117 -26 -61 -30 -81 -30 -161 0 -67 -3 -89 -12 -84 -6 4 -4 -3 5 -17 9
-13 17 -29 17 -36 0 -24 74 -139 117 -181 24 -24 77 -59 116 -78 60 -29 87
-36 158 -41 84 -6 88 -5 162 31 55 26 89 51 128 93 28 32 48 52 44 44 -5 -9
-4 -12 3 -7 7 4 12 13 12 21 0 7 7 16 16 19 9 4 14 13 10 22 -3 8 -2 12 3 9 5
-3 13 4 16 15 7 23 -10 50 -30 50 -7 0 -26 7 -41 15 -29 15 -29 14 -35 -16 -4
-16 -15 -39 -24 -49 -10 -11 -15 -20 -12 -20 17 0 -85 -82 -124 -100 -65 -29
-178 -27 -245 4 -66 31 -130 86 -112 97 9 6 7 9 -8 9 -25 0 -41 30 -22 42 10
6 9 8 -3 8 -9 0 -20 7 -23 16 -9 24 -7 29 5 17 24 -24 39 -2 39 55 0 30 -3 52
-7 48 -4 -4 -6 -24 -5 -44 1 -20 -2 -44 -8 -52 -8 -13 -10 -12 -10 3 0 10 -4
16 -9 13 -4 -3 -7 12 -6 33 2 30 -1 38 -11 34 -8 -3 -14 0 -14 6 0 6 5 11 10
11 6 0 10 5 10 11 0 5 -4 8 -8 5 -13 -8 2 76 19 102 21 34 28 27 32 -35 3 -42
4 -34 4 26 0 55 4 86 11 89 7 2 12 9 12 17 0 7 8 19 17 26 14 12 16 12 8 0 -5
-10 -4 -12 3 -7 7 4 12 14 12 22 0 9 24 26 56 41 45 20 58 23 64 12 5 -7 7
-16 4 -20 -2 -4 3 -9 11 -13 8 -3 17 -1 20 4 3 4 0 10 -7 12 -16 6 -2 38 16
38 8 0 17 -13 21 -30 8 -38 24 -31 17 7 -5 32 13 21 21 -12 4 -18 5 -18 6 3 1
27 41 32 41 5 0 -13 3 -14 8 -6 6 10 16 9 45 -4 32 -15 51 -43 29 -43 -5 0
-17 -7 -28 -15 -18 -14 -17 -15 11 -9 l30 6 -29 -24 c-19 -16 -27 -30 -23 -43
5 -20 5 -19 6 0 1 11 19 32 41 47 l39 27 30 -35 c36 -40 40 -59 11 -51 -12 3
-21 -1 -25 -12 -3 -9 -21 -41 -40 -70 l-34 -54 62 -43 c74 -52 195 -114 219
-114 10 0 27 -9 38 -20 11 -11 27 -20 35 -20 8 0 15 -5 15 -12 0 -9 3 -9 12 0
7 7 21 12 33 12 27 1 57 27 83 72 14 24 17 40 10 44 -7 4 -6 9 3 15 33 21 39
10 39 -71 0 -76 1 -80 23 -80 21 0 22 3 19 61 -4 72 6 139 18 120 6 -11 9 -10
16 1 5 8 16 18 24 21 24 10 -64 -1 -110 -13 -37 -10 -43 -9 -55 7 -13 17 -8
18 83 25 143 11 156 16 160 64 2 21 8 44 14 51 8 10 3 13 -23 13 -26 0 -30 -3
-21 -12 7 -7 12 -25 12 -40 0 -26 -3 -28 -37 -28 -41 0 -114 36 -121 60 -5 13
-3 13 12 1 15 -13 19 -13 27 0 14 22 11 28 -11 22 -11 -3 -20 -2 -20 1 0 10
32 70 40 76 4 3 13 17 21 31 79 147 127 220 150 226 10 3 21 14 25 25 4 15 12
18 31 13 20 -5 24 -3 20 9 -4 10 1 20 14 26 21 12 26 5 39 -54 5 -25 11 -31
30 -28 13 1 27 7 31 14 4 6 12 8 18 4 13 -9 3 -67 -15 -82 -8 -7 -9 -15 -3
-25 5 -8 9 -21 9 -29 0 -13 -2 -13 -9 -1 -8 12 -15 10 -46 -7 -20 -12 -33 -17
-29 -10 5 8 2 9 -9 5 -12 -4 -17 -1 -18 11 -1 9 -4 4 -8 -12 -5 -22 -16 -32
-53 -46 -25 -10 -67 -21 -92 -24 -66 -10 -57 -26 15 -26 37 0 58 -4 54 -10 -3
-5 -1 -10 4 -10 6 0 11 5 11 10 0 6 6 10 14 10 9 0 12 -7 9 -20 -3 -11 -8 -20
-12 -20 -4 0 -7 -8 -8 -17 -1 -10 -7 -43 -13 -73 -7 -30 -10 -91 -8 -135 4
-65 11 -93 38 -150 38 -80 141 -190 205 -219 22 -10 58 -27 80 -38 68 -33 148
-34 235 -3 117 43 190 104 234 198 7 16 16 28 19 28 18 -2 21 0 10 7 -13 8 -2
79 14 91 4 3 6 319 3 701 -4 541 -6 611 -8 315 -2 -209 -3 -463 -3 -565 0
-102 -3 -207 -7 -235 l-7 -50 -20 58 c-10 31 -22 57 -25 57 -4 0 -15 16 -26
35 -10 19 -21 35 -25 35 -3 0 -20 14 -37 30 -18 17 -35 30 -38 30 -4 0 -14 8
-23 18 -21 24 -132 68 -195 77 -26 4 -44 10 -40 14 5 3 10 14 10 24 2 16 -4
17 -52 11 -42 -5 -57 -3 -70 10 -12 13 -19 14 -30 5 -19 -16 -19 10 1 58 19
45 19 49 -1 57 -14 5 -15 4 -5 -8 15 -18 6 -36 -16 -36 -9 0 -25 -8 -36 -17
-19 -18 -20 -17 -14 11 6 36 -2 64 -13 46 -5 -8 -12 1 -20 24 -11 35 -8 56 11
56 5 0 9 -7 9 -17 0 -9 2 -14 5 -12 2 3 2 21 -1 40 -5 27 -13 38 -35 46 -29
11 -47 38 -35 51 4 3 11 1 15 -7 6 -10 10 -9 14 4 4 9 3 13 -3 10 -12 -7 -12
8 -1 58 6 25 5 37 -2 37 -6 0 -8 3 -5 6 4 3 26 -1 50 -9 64 -22 69 -5 15 46
-47 43 -61 49 -50 21 4 -12 0 -14 -23 -8 -59 14 -79 25 -65 33 26 16 -8 22
-36 7 -16 -8 -23 -15 -16 -16 6 0 17 -16 23 -36 10 -30 10 -38 -1 -45 -23 -15
-47 -10 -63 12 -16 24 -49 22 -54 -3 -2 -12 7 -18 37 -23 23 -4 41 -8 41 -8 0
-1 -4 -17 -9 -34 -6 -20 -6 -35 0 -38 10 -7 69 25 69 37 0 11 38 10 44 -1 3
-5 -3 -11 -14 -14 -24 -6 -26 -32 -5 -54 9 -8 14 -20 12 -26 -2 -6 -42 -31
-89 -55 l-85 -45 -43 47 c-47 51 -60 56 -60 24 0 -12 -7 -29 -16 -39 -14 -16
-14 -20 1 -48 8 -17 19 -31 23 -31 3 0 31 10 60 22 44 18 55 20 62 9 4 -8 6
-21 3 -29 -4 -8 6 -23 22 -36 l28 -23 -24 -24 c-13 -13 -27 -23 -31 -22 -4 2
-16 -13 -28 -32 -25 -41 -35 -46 -18 -10 9 21 8 28 -7 45 -17 18 -17 21 -1 46
21 31 16 38 -22 29 -30 -6 -50 -43 -36 -66 3 -6 -12 -27 -34 -47 -37 -35 -162
-245 -162 -273 0 -7 10 -23 21 -35 16 -17 20 -30 15 -48 -11 -46 -32 -29 -53
44 -20 68 -20 70 -2 70 20 0 42 41 37 68 -2 10 -16 4 -49 -22 l-46 -35 13 -48
c7 -26 17 -63 23 -82 6 -18 8 -31 5 -28 -4 3 -20 -9 -38 -27 l-31 -33 -2 51
c-2 77 -5 126 -8 126 -1 0 -12 -9 -25 -20 -23 -20 -60 -19 -68 1 -2 4 -10 5
-18 2 -8 -3 -14 -2 -14 1 0 7 36 50 63 76 16 15 16 18 2 30 -8 7 -15 17 -15
23 0 5 -8 16 -17 23 -17 12 -15 16 22 48 36 33 41 35 53 19 6 -9 12 -25 12
-34 0 -12 7 -17 20 -16 11 1 20 7 20 15 0 7 7 27 16 43 14 28 14 33 -1 55 -8
13 -20 24 -26 24 -17 0 -39 28 -34 42 15 38 -142 228 -188 228 -11 0 -17 5
-14 13 2 6 -1 19 -8 27 -19 24 -35 101 -24 121 5 10 9 33 9 51 0 55 10 61 61
43 78 -29 80 -29 73 -11 -5 12 -2 15 10 10 25 -10 19 -23 -16 -33 -18 -5 -27
-10 -20 -10 6 -1 14 0 15 2 2 1 11 -4 21 -12 14 -12 19 -11 35 3 16 15 19 15
31 1 7 -8 20 -15 29 -15 10 0 27 -18 40 -40 12 -22 26 -40 32 -40 13 0 11 12
-4 35 -8 11 -22 34 -33 50 l-19 30 28 -18 c16 -10 31 -16 34 -14 2 3 -15 17
-39 31 -24 14 -40 26 -35 26 4 0 -2 9 -13 20 -20 20 -27 50 -12 50 4 0 33 -16
66 -36 32 -19 66 -33 75 -31 12 3 9 7 -11 17 -14 7 -28 20 -31 30 -2 9 -18 20
-36 23 -17 4 -31 12 -31 19 0 7 -13 29 -29 48 -16 19 -39 46 -50 60 -18 21
-22 23 -31 10 -9 -13 -11 -13 -21 0 -9 12 -10 11 -6 -7 4 -16 0 -23 -10 -23
-13 0 -15 13 -11 84 6 97 38 169 95 212 l34 25 43 -21 c52 -25 79 -76 69 -134
-5 -31 -3 -35 11 -30 18 7 23 -20 6 -31 -5 -3 -10 -18 -9 -33 l0 -27 16 23
c15 21 16 21 29 5 12 -16 13 -15 14 12 0 17 -7 43 -15 59 -8 15 -15 36 -15 45
0 35 -50 122 -80 139 -16 9 -30 20 -30 23 0 3 -10 4 -23 2 -20 -4 -62 7 -119
32 -13 5 -19 1 -23 -17z m45 -52 c0 -3 -4 -8 -10 -11 -5 -3 -10 -1 -10 4 0 6
5 11 10 11 6 0 10 -2 10 -4z m-21 -419 c0 -21 -1 -21 -9 -2 -12 28 -12 37 0
30 6 -3 10 -16 9 -28z m111 13 c0 -5 -4 -10 -9 -10 -6 0 -13 5 -16 10 -3 6 1
10 9 10 9 0 16 -4 16 -10z m-150 -40 c0 -5 -2 -10 -4 -10 -2 0 -12 -3 -20 -6
-12 -5 -15 -2 -10 10 7 17 34 22 34 6z m835 -130 c3 -5 1 -10 -4 -10 -6 0 -11
5 -11 10 0 6 2 10 4 10 3 0 8 -4 11 -10z m-175 -50 c0 -5 -4 -10 -10 -10 -5 0
-10 5 -10 10 0 6 5 10 10 10 6 0 10 -4 10 -10z m-1058 -17 c10 -9 18 -30 18
-50 l0 -33 -76 0 c-71 0 -75 1 -69 20 4 11 2 20 -4 20 -15 0 -14 27 1 36 14 9
66 22 92 23 11 1 28 -6 38 -16z m57 -55 c1 -16 -4 -28 -9 -28 -6 0 -10 6 -9
13 1 6 -1 24 -5 39 -4 15 -4 33 0 40 9 15 21 -19 23 -64z m1141 -84 c0 -8 -7
-14 -15 -14 -17 0 -18 2 -9 24 7 18 24 12 24 -10z m-20 -39 c0 -8 -2 -15 -4
-15 -2 0 -6 7 -10 15 -3 8 -1 15 4 15 6 0 10 -7 10 -15z m-1131 -111 c3 -16 1
-17 -13 -5 -19 16 -21 34 -3 29 6 -3 14 -13 16 -24z m302 -40 c16 -8 38 -13
47 -10 10 4 28 -4 44 -19 32 -30 35 -30 40 -7 3 9 5 -4 6 -29 1 -43 -1 -47
-38 -68 l-38 -21 -39 25 c-21 13 -42 28 -48 33 -5 4 -14 9 -20 9 -5 1 -29 7
-52 14 -23 6 -56 9 -72 7 -17 -2 -28 -1 -25 4 3 4 -4 8 -16 8 -12 0 -18 5 -15
10 13 21 128 5 198 -28 78 -37 108 -42 59 -10 -27 17 -32 25 -28 44 7 27 -6
30 -47 15 -33 -13 -107 -2 -107 15 0 9 8 12 28 8 15 -3 38 -1 52 5 34 13 37
13 71 -5z m139 4 c0 -11 -42 -10 -60 2 -11 8 -5 10 23 8 20 -1 37 -6 37 -10z
m-326 -12 c-7 -17 -54 -16 -54 2 0 7 13 12 30 12 21 0 28 -4 24 -14z m-64 -6
c0 -5 -9 -10 -20 -10 -11 0 -20 5 -20 10 0 6 9 10 20 10 11 0 20 -4 20 -10z
m0 -37 c-8 -3 -21 -10 -27 -16 -9 -7 -13 -5 -13 7 0 11 8 16 28 15 15 0 21 -3
12 -6z m-50 -13 c0 -13 -28 -25 -38 -16 -3 4 0 11 8 16 20 13 30 12 30 0z
m470 0 c0 -5 -2 -10 -4 -10 -3 0 -8 5 -11 10 -3 6 -1 10 4 10 6 0 11 -4 11
-10z m867 4 c-3 -3 -12 -4 -19 -1 -8 3 -5 6 6 6 11 1 17 -2 13 -5z m-1217 -38
c0 -8 -71 -12 -76 -4 -3 4 13 8 35 8 23 0 41 -2 41 -4z m-130 -10 c0 -6 -124
-66 -128 -61 -7 6 55 44 88 53 19 6 36 11 38 11 1 1 2 -1 2 -3z m1439 0 c-2
-2 -35 -6 -72 -10 -46 -5 -67 -3 -62 4 3 5 36 10 72 10 37 0 64 -2 62 -4z
m-593 -54 c-18 -16 -18 -16 -6 6 6 13 14 21 18 18 3 -4 -2 -14 -12 -24z m710
-53 c19 -11 40 -27 47 -33 7 -7 22 -18 33 -24 22 -12 71 -77 76 -102 2 -8 6
-17 9 -20 3 -3 9 -17 12 -32 5 -20 3 -28 -10 -31 -14 -4 -12 -5 5 -6 12 -1 22
-7 22 -16 0 -9 -10 -15 -22 -16 -22 -1 -22 -1 1 -8 27 -7 37 -49 14 -58 -7 -3
-13 -9 -13 -15 0 -5 5 -6 11 -2 18 11 1 -48 -17 -62 -11 -9 -12 -13 -3 -16 9
-3 3 -19 -18 -49 -41 -59 -58 -73 -127 -105 -52 -23 -67 -26 -127 -21 -67 6
-151 38 -190 73 -8 8 -20 14 -25 14 -12 0 -39 31 -65 73 -23 39 -25 58 -3 31
10 -12 9 -7 -2 11 -16 25 -19 50 -19 145 0 63 3 124 6 135 14 50 31 77 49 82
11 3 17 9 14 14 -3 5 1 9 8 9 12 0 25 -21 56 -92 2 -5 -3 -8 -12 -8 -13 0 -16
-25 -18 -175 l-3 -175 30 0 30 0 -2 142 -2 143 26 -57 c14 -32 31 -58 38 -58
20 0 46 -35 35 -46 -7 -7 0 -10 23 -10 28 1 33 4 29 22 -2 11 4 26 12 33 21
18 21 71 0 71 -13 0 -15 10 -12 55 3 54 3 54 -27 57 -24 2 -31 8 -33 31 -3 23
-8 27 -33 27 l-29 0 17 -37 c9 -21 17 -50 17 -64 1 -25 2 -25 24 -11 13 8 22
10 22 4 0 -6 -5 -14 -10 -17 -6 -4 -7 -23 -4 -46 4 -21 4 -39 1 -39 -8 0 -41
75 -79 175 -42 114 -43 118 -27 113 8 -2 15 -17 17 -31 3 -24 8 -27 40 -27 28
0 33 3 22 10 -11 7 5 10 53 10 78 0 89 16 17 26 -27 4 -58 13 -67 21 -31 25
140 9 183 -18z m-943 -283 c3 -8 0 -19 -6 -25 -10 -7 -13 -4 -15 15 -2 26 12
33 21 10z m112 -65 c3 -5 -1 -16 -9 -24 -8 -8 -12 -17 -9 -21 4 -3 1 -6 -5 -6
-16 0 -22 14 -15 38 5 22 27 30 38 13z m-135 -35 c0 -11 -19 -15 -25 -6 -3 5
1 10 9 10 9 0 16 -2 16 -4z m12 -28 c-7 -7 -12 -8 -12 -2 0 14 12 26 19 19 2
-3 -1 -11 -7 -17z m58 12 c0 -5 5 -9 11 -7 24 5 19 -21 -5 -27 -37 -9 -58 2
-45 25 10 20 39 26 39 9z m627 -66 c-3 -3 -12 -4 -19 -1 -8 3 -5 6 6 6 11 1
17 -2 13 -5z m-1022 -133 c-12 -21 -117 -51 -173 -50 l-57 2 65 7 c36 5 88 17
115 28 28 11 51 20 53 21 2 1 1 -3 -3 -8z"/>
<path d="M4176 1491 c5 -6 7 -77 4 -175 l-5 -166 34 0 c28 0 31 2 22 14 -9 11
-11 62 -9 175 l3 161 -29 0 c-19 0 -26 -4 -20 -9z"/>
<path d="M4258 1453 c7 -3 16 -2 19 1 4 3 -2 6 -13 5 -11 0 -14 -3 -6 -6z"/>
<path d="M4258 1343 c6 -2 18 -2 25 0 6 3 1 5 -13 5 -14 0 -19 -2 -12 -5z"/>
<path d="M4258 1233 c6 -2 18 -2 25 0 6 3 1 5 -13 5 -14 0 -19 -2 -12 -5z"/>
<path d="M3980 1210 c0 -11 4 -20 9 -20 5 0 7 9 4 20 -3 11 -7 20 -9 20 -2 0
-4 -9 -4 -20z"/>
<path d="M4043 1205 c0 -8 4 -12 9 -9 5 3 6 10 3 15 -9 13 -12 11 -12 -6z"/>
<path d="M4258 1193 c7 -3 16 -2 19 1 4 3 -2 6 -13 5 -11 0 -14 -3 -6 -6z"/>
<path d="M4043 1170 c-30 -12 -29 -16 6 -16 20 0 27 4 24 13 -3 7 -6 13 -7 12
0 0 -11 -4 -23 -9z"/>
<path d="M3284 2824 c11 -74 11 -78 20 -92 4 -6 12 -12 18 -12 7 0 7 4 0 13
-5 6 -13 38 -16 69 -4 32 -12 61 -18 64 -8 5 -9 -8 -4 -42z"/>
<path d="M3045 2669 c-4 -6 -5 -12 -2 -15 2 -3 7 2 10 11 7 17 1 20 -8 4z"/>
<path d="M4510 2265 c-3 -209 -3 -522 0 -695 l5 -315 5 320 c3 176 3 489 0
695 l-5 375 -5 -380z"/>
<path d="M4558 2263 c-2 -208 -1 -520 2 -693 4 -233 6 -135 8 378 1 380 0 692
-3 692 -2 0 -6 -170 -7 -377z"/>
<path d="M3326 2598 c-3 -13 -1 -27 4 -32 7 -7 10 1 10 22 0 37 -5 41 -14 10z"/>
<path d="M2621 2554 c0 -11 3 -14 6 -6 3 7 2 16 -1 19 -3 4 -6 -2 -5 -13z"/>
<path d="M4398 2553 c6 -2 18 -2 25 0 6 3 1 5 -13 5 -14 0 -19 -2 -12 -5z"/>
<path d="M4608 2553 c6 -2 18 -2 25 0 6 3 1 5 -13 5 -14 0 -19 -2 -12 -5z"/>
<path d="M4398 2513 c6 -2 18 -2 25 0 6 3 1 5 -13 5 -14 0 -19 -2 -12 -5z"/>
<path d="M4608 2513 c6 -2 18 -2 25 0 6 3 1 5 -13 5 -14 0 -19 -2 -12 -5z"/>
<path d="M3327 2473 c-4 -3 -7 -11 -7 -17 0 -6 5 -5 12 2 6 6 9 14 7 17 -3 3
-9 2 -12 -2z"/>
<path d="M2492 2373 c-1 -61 -6 -93 -14 -95 -7 -3 -6 -7 5 -11 12 -5 17 -1 17
13 0 11 5 20 11 20 7 0 10 -12 7 -30 -3 -16 -1 -30 4 -30 4 0 7 33 7 73 -1 39
-4 61 -6 47 -10 -59 -18 -50 -23 25 l-6 80 -2 -92z"/>
<path d="M2656 2453 c-17 -17 -4 -63 30 -99 l35 -39 -20 42 c-12 23 -21 53
-21 67 0 25 -12 40 -24 29z"/>
<path d="M4398 2443 c6 -2 18 -2 25 0 6 3 1 5 -13 5 -14 0 -19 -2 -12 -5z"/>
<path d="M4608 2443 c6 -2 18 -2 25 0 6 3 1 5 -13 5 -14 0 -19 -2 -12 -5z"/>
<path d="M2243 2395 c0 -27 2 -38 4 -22 2 15 2 37 0 50 -2 12 -4 0 -4 -28z"/>
<path d="M2591 2414 c0 -11 3 -14 6 -6 3 7 2 16 -1 19 -3 4 -6 -2 -5 -13z"/>
<path d="M2610 2410 c0 -11 4 -20 9 -20 5 0 7 9 4 20 -3 11 -7 20 -9 20 -2 0
-4 -9 -4 -20z"/>
<path d="M4398 2403 c6 -2 18 -2 25 0 6 3 1 5 -13 5 -14 0 -19 -2 -12 -5z"/>
<path d="M4608 2403 c6 -2 18 -2 25 0 6 3 1 5 -13 5 -14 0 -19 -2 -12 -5z"/>
<path d="M4398 2373 c6 -2 18 -2 25 0 6 3 1 5 -13 5 -14 0 -19 -2 -12 -5z"/>
<path d="M4608 2373 c6 -2 18 -2 25 0 6 3 1 5 -13 5 -14 0 -19 -2 -12 -5z"/>
<path d="M4398 2333 c6 -2 18 -2 25 0 6 3 1 5 -13 5 -14 0 -19 -2 -12 -5z"/>
<path d="M4608 2333 c6 -2 18 -2 25 0 6 3 1 5 -13 5 -14 0 -19 -2 -12 -5z"/>
<path d="M4398 2303 c7 -3 16 -2 19 1 4 3 -2 6 -13 5 -11 0 -14 -3 -6 -6z"/>
<path d="M4608 2303 c7 -3 16 -2 19 1 4 3 -2 6 -13 5 -11 0 -14 -3 -6 -6z"/>
<path d="M4398 2263 c6 -2 18 -2 25 0 6 3 1 5 -13 5 -14 0 -19 -2 -12 -5z"/>
<path d="M4608 2263 c6 -2 18 -2 25 0 6 3 1 5 -13 5 -14 0 -19 -2 -12 -5z"/>
<path d="M2778 2243 c12 -2 30 -2 40 0 9 3 -1 5 -23 4 -22 0 -30 -2 -17 -4z"/>
<path d="M4396 2232 c-2 -4 4 -8 14 -8 10 0 16 4 14 8 -3 4 -9 8 -14 8 -5 0
-11 -4 -14 -8z"/>
<path d="M4606 2232 c-2 -4 4 -9 15 -9 11 -1 17 2 14 8 -7 11 -22 12 -29 1z"/>
<path d="M3862 2199 c2 -7 10 -15 17 -17 8 -3 12 1 9 9 -2 7 -10 15 -17 17 -8
3 -12 -1 -9 -9z"/>
<path d="M2778 2193 c12 -2 30 -2 40 0 9 3 -1 5 -23 4 -22 0 -30 -2 -17 -4z"/>
<path d="M4398 2193 c6 -2 18 -2 25 0 6 3 1 5 -13 5 -14 0 -19 -2 -12 -5z"/>
<path d="M4608 2193 c6 -2 18 -2 25 0 6 3 1 5 -13 5 -14 0 -19 -2 -12 -5z"/>
<path d="M4398 2153 c6 -2 18 -2 25 0 6 3 1 5 -13 5 -14 0 -19 -2 -12 -5z"/>
<path d="M4608 2153 c6 -2 18 -2 25 0 6 3 1 5 -13 5 -14 0 -19 -2 -12 -5z"/>
<path d="M3250 2130 c0 -5 5 -10 10 -10 6 0 10 5 10 10 0 6 -4 10 -10 10 -5 0
-10 -4 -10 -10z"/>
<path d="M4398 2113 c7 -3 16 -2 19 1 4 3 -2 6 -13 5 -11 0 -14 -3 -6 -6z"/>
<path d="M4608 2113 c7 -3 16 -2 19 1 4 3 -2 6 -13 5 -11 0 -14 -3 -6 -6z"/>
<path d="M1992 2080 c0 -19 2 -27 5 -17 2 9 2 25 0 35 -3 9 -5 1 -5 -18z"/>
<path d="M1405 2090 c-3 -5 -1 -10 4 -10 6 0 11 5 11 10 0 6 -2 10 -4 10 -3 0
-8 -4 -11 -10z"/>
<path d="M2733 2084 c-17 -15 -20 -24 -12 -43 9 -22 11 -23 25 -9 9 9 14 27
12 43 -3 27 -3 27 -25 9z"/>
<path d="M4398 2083 c6 -2 18 -2 25 0 6 3 1 5 -13 5 -14 0 -19 -2 -12 -5z"/>
<path d="M4608 2083 c6 -2 18 -2 25 0 6 3 1 5 -13 5 -14 0 -19 -2 -12 -5z"/>
<path d="M4398 2043 c6 -2 18 -2 25 0 6 3 1 5 -13 5 -14 0 -19 -2 -12 -5z"/>
<path d="M4608 2043 c6 -2 18 -2 25 0 6 3 1 5 -13 5 -14 0 -19 -2 -12 -5z"/>
<path d="M4398 2013 c7 -3 16 -2 19 1 4 3 -2 6 -13 5 -11 0 -14 -3 -6 -6z"/>
<path d="M4608 2013 c7 -3 16 -2 19 1 4 3 -2 6 -13 5 -11 0 -14 -3 -6 -6z"/>
<path d="M1402 1994 c4 -3 56 -5 118 -5 62 0 114 2 118 5 3 3 -50 6 -118 6
-68 0 -121 -3 -118 -6z"/>
<path d="M4398 1973 c6 -2 18 -2 25 0 6 3 1 5 -13 5 -14 0 -19 -2 -12 -5z"/>
<path d="M4608 1973 c6 -2 18 -2 25 0 6 3 1 5 -13 5 -14 0 -19 -2 -12 -5z"/>
<path d="M4398 1933 c6 -2 18 -2 25 0 6 3 1 5 -13 5 -14 0 -19 -2 -12 -5z"/>
<path d="M1418 1913 c12 -2 30 -2 40 0 9 3 -1 5 -23 4 -22 0 -30 -2 -17 -4z"/>
<path d="M1588 1913 c12 -2 30 -2 40 0 9 3 -1 5 -23 4 -22 0 -30 -2 -17 -4z"/>
<path d="M1971 1904 c0 -11 3 -14 6 -6 3 7 2 16 -1 19 -3 4 -6 -2 -5 -13z"/>
<path d="M2494 1835 c11 -8 22 -12 25 -9 6 6 -19 24 -34 24 -5 -1 -1 -7 9 -15z"/>
<path d="M2458 1800 c-2 -22 0 -40 4 -40 5 0 8 18 8 40 0 22 -2 40 -4 40 -2 0
-6 -18 -8 -40z"/>
<path d="M2560 1830 c-8 -5 -10 -10 -5 -10 6 0 17 5 25 10 8 5 11 10 5 10 -5
0 -17 -5 -25 -10z"/>
<path d="M3380 1819 c-19 -10 -53 -18 -76 -19 -22 0 -49 -7 -60 -16 -18 -14
-18 -15 6 -8 14 4 43 8 65 9 43 2 74 15 95 39 15 19 15 19 -30 -5z"/>
<path d="M3213 1813 c-14 -5 -18 -23 -5 -23 5 0 17 7 28 15 14 11 15 14 4 14
-8 0 -21 -3 -27 -6z"/>
<path d="M3803 1799 c-2 -16 1 -18 11 -10 7 6 17 7 22 3 4 -4 2 1 -5 11 -18
23 -26 22 -28 -4z"/>
<path d="M1570 1739 c0 -5 5 -7 10 -4 6 3 10 8 10 11 0 2 -4 4 -10 4 -5 0 -10
-5 -10 -11z"/>
<path d="M3760 1714 c0 -8 5 -12 10 -9 6 3 10 10 10 16 0 5 -4 9 -10 9 -5 0
-10 -7 -10 -16z"/>
<path d="M2302 1690 c0 -19 2 -27 5 -17 2 9 2 25 0 35 -3 9 -5 1 -5 -18z"/>
<path d="M4248 1713 c6 -2 18 -2 25 0 6 3 1 5 -13 5 -14 0 -19 -2 -12 -5z"/>
<path d="M5012 1645 c3 -66 4 -70 26 -68 12 2 22 -1 22 -6 0 -12 51 -24 61
-14 5 5 0 16 -11 26 -16 14 -20 14 -20 2 0 -9 -6 -12 -15 -9 -8 4 -15 18 -15
34 0 28 0 28 70 28 84 0 94 -16 13 -21 l-58 -3 58 -2 c42 -1 57 -6 57 -16 0
-8 -4 -16 -9 -18 -5 -1 -3 -9 5 -16 12 -11 14 -8 15 20 1 18 1 39 0 46 -1 8 6
13 16 12 37 -4 86 0 80 7 -4 3 -61 6 -127 5 -107 -1 -144 7 -107 21 10 4 10 6
0 6 -7 1 -13 6 -13 11 0 6 26 10 57 10 31 0 53 3 50 7 -4 4 -41 7 -83 7 l-75
1 3 -70z m38 45 c0 -5 -7 -10 -15 -10 -8 0 -15 5 -15 10 0 6 7 10 15 10 8 0
15 -4 15 -10z m0 -30 c0 -5 -7 -10 -15 -10 -8 0 -15 5 -15 10 0 6 7 10 15 10
8 0 15 -4 15 -10z m0 -30 c0 -5 -6 -10 -12 -10 -10 0 -9 -3 1 -9 7 -5 10 -14
7 -20 -11 -17 -26 -3 -26 25 0 15 6 24 15 24 8 0 15 -4 15 -10z"/>
<path d="M5187 1708 c-7 -4 9 -8 36 -8 26 0 47 3 47 8 0 9 -68 9 -83 0z"/>
<path d="M2399 1693 c-13 -16 -12 -17 4 -4 9 7 17 15 17 17 0 8 -8 3 -21 -13z"/>
<path d="M5090 1678 c0 -5 48 -8 107 -8 58 0 103 3 100 7 -10 9 -207 10 -207
1z"/>
<path d="M1655 1670 c-3 -5 -1 -10 4 -10 6 0 11 5 11 10 0 6 -2 10 -4 10 -3 0
-8 -4 -11 -10z"/>
<path d="M3070 1669 c0 -5 5 -7 10 -4 6 3 10 8 10 11 0 2 -4 4 -10 4 -5 0 -10
-5 -10 -11z"/>
<path d="M1570 1659 c0 -5 5 -7 10 -4 6 3 10 8 10 11 0 2 -4 4 -10 4 -5 0 -10
-5 -10 -11z"/>
<path d="M4361 1644 c0 -11 3 -14 6 -6 3 7 2 16 -1 19 -3 4 -6 -2 -5 -13z"/>
<path d="M4661 1644 c0 -11 3 -14 6 -6 3 7 2 16 -1 19 -3 4 -6 -2 -5 -13z"/>
<path d="M3121 1636 c-16 -19 -11 -29 8 -17 7 5 12 14 9 21 -3 9 -8 7 -17 -4z"/>
<path d="M1655 1630 c-3 -5 -1 -10 4 -10 6 0 11 5 11 10 0 6 -2 10 -4 10 -3 0
-8 -4 -11 -10z"/>
<path d="M5240 1600 c0 -11 -5 -20 -10 -20 -6 0 -5 -6 2 -14 10 -10 17 -11 26
-3 10 8 16 7 22 -2 5 -9 8 -4 8 12 0 23 -2 24 -15 11 -21 -20 -26 -18 -21 11
3 14 1 25 -3 25 -5 0 -9 -9 -9 -20z"/>
<path d="M2653 1540 c0 -41 2 -58 4 -37 2 20 2 54 0 75 -2 20 -4 3 -4 -38z"/>
<path d="M1375 1590 c-3 -5 -1 -10 4 -10 6 0 11 5 11 10 0 6 -2 10 -4 10 -3 0
-8 -4 -11 -10z"/>
<path d="M1685 1590 c-3 -5 -1 -10 4 -10 6 0 11 5 11 10 0 6 -2 10 -4 10 -3 0
-8 -4 -11 -10z"/>
<path d="M2801 1584 c0 -11 3 -14 6 -6 3 7 2 16 -1 19 -3 4 -6 -2 -5 -13z"/>
<path d="M2313 1545 c0 -27 2 -38 4 -22 2 15 2 37 0 50 -2 12 -4 0 -4 -28z"/>
<path d="M4885 1580 c3 -5 8 -10 11 -10 2 0 4 5 4 10 0 6 -5 10 -11 10 -5 0
-7 -4 -4 -10z"/>
<path d="M5152 1581 c-11 -7 -11 -9 0 -14 9 -3 15 1 15 9 0 8 -1 14 -1 14 -1
0 -7 -4 -14 -9z"/>
<path d="M2740 1569 c0 -5 5 -7 10 -4 6 3 10 8 10 11 0 2 -4 4 -10 4 -5 0 -10
-5 -10 -11z"/>
<path d="M1340 1550 c0 -5 5 -10 11 -10 5 0 7 5 4 10 -3 6 -8 10 -11 10 -2 0
-4 -4 -4 -10z"/>
<path d="M5138 1543 c6 -2 18 -2 25 0 6 3 1 5 -13 5 -14 0 -19 -2 -12 -5z"/>
<path d="M2752 1520 c0 -14 2 -19 5 -12 2 6 2 18 0 25 -3 6 -5 1 -5 -13z"/>
<path d="M2802 1520 c0 -14 2 -19 5 -12 2 6 2 18 0 25 -3 6 -5 1 -5 -13z"/>
<path d="M2701 1473 c8 -10 18 -21 23 -25 14 -9 -13 -38 -35 -38 -11 0 -19 5
-19 10 0 20 -15 9 -43 -30 -16 -23 -23 -39 -17 -38 7 2 14 -13 16 -36 4 -33 2
-38 -13 -32 -16 6 -16 6 0 -12 16 -18 16 -19 -5 -30 -13 -6 -41 -13 -63 -15
-35 -3 -34 -4 12 -5 28 -1 53 3 55 8 2 6 12 12 23 14 11 2 25 5 30 7 6 2 25 0
43 -4 23 -5 32 -12 32 -26 0 -11 -4 -22 -9 -25 -5 -3 -11 -17 -13 -31 -5 -22
-2 -25 23 -25 21 0 28 5 31 23 3 20 8 22 53 19 31 -2 55 -10 64 -20 13 -16 13
-16 8 1 -5 12 -1 17 12 17 10 0 32 5 50 11 55 19 37 92 -24 92 -13 0 -23 3
-20 7 2 3 -2 7 -9 7 -7 0 -18 -8 -23 -16 -9 -14 -5 -16 29 -14 49 3 63 -21 28
-49 -17 -14 -26 -16 -36 -7 -10 8 -14 8 -14 0 0 -7 -20 -9 -62 -6 -42 3 -65 0
-70 -8 -4 -7 -5 8 -2 33 4 25 11 48 16 51 14 9 -13 49 -33 49 -22 0 -43 26
-33 42 6 10 5 11 -8 1 -16 -14 -28 -8 -28 13 0 9 13 12 40 11 21 -1 35 -4 30
-7 -6 -3 6 -21 25 -40 20 -19 33 -40 31 -47 -3 -7 -1 -13 4 -13 6 0 10 9 10
20 0 17 5 19 33 13 29 -6 31 -5 18 10 -7 9 -20 17 -28 17 -8 0 -11 5 -8 10 5
8 11 8 20 0 9 -8 14 -7 18 4 7 18 -10 31 -38 29 -16 -1 -16 -1 -2 3 21 6 23
24 3 24 -9 0 -16 12 -18 27 -3 32 -38 46 -38 16 0 -10 -4 -14 -8 -8 -9 13 -49
35 -63 35 -8 0 -7 -6 2 -17z m-1 -193 c0 -5 -4 -10 -10 -10 -5 0 -10 5 -10 10
0 6 5 10 10 10 6 0 10 -4 10 -10z m47 -122 c-3 -8 -6 -5 -6 6 -1 11 2 17 5 13
3 -3 4 -12 1 -19z"/>
<path d="M1650 1469 c0 -5 5 -7 10 -4 6 3 10 8 10 11 0 2 -4 4 -10 4 -5 0 -10
-5 -10 -11z"/>
<path d="M2130 1468 c0 -4 11 -8 25 -8 14 0 25 4 25 8 0 4 -11 8 -25 8 -14 0
-25 -4 -25 -8z"/>
<path d="M2503 1474 c3 -4 29 -7 57 -7 28 0 54 3 57 7 3 3 -22 6 -57 6 -35 0
-60 -3 -57 -6z"/>
<path d="M4678 1453 c7 -3 16 -2 19 1 4 3 -2 6 -13 5 -11 0 -14 -3 -6 -6z"/>
<path d="M4758 1453 c6 -2 18 -2 25 0 6 3 1 5 -13 5 -14 0 -19 -2 -12 -5z"/>
<path d="M2111 1434 c0 -11 3 -14 6 -6 3 7 2 16 -1 19 -3 4 -6 -2 -5 -13z"/>
<path d="M2131 1434 c0 -11 3 -14 6 -6 3 7 2 16 -1 19 -3 4 -6 -2 -5 -13z"/>
<path d="M1340 1429 c0 -5 5 -7 10 -4 6 3 10 8 10 11 0 2 -4 4 -10 4 -5 0 -10
-5 -10 -11z"/>
<path d="M5100 1420 c-13 -8 -12 -10 3 -10 9 0 17 5 17 10 0 12 -1 12 -20 0z"/>
<path d="M1913 1370 c0 -25 2 -35 4 -22 2 12 2 32 0 45 -2 12 -4 2 -4 -23z"/>
<path d="M2111 1394 c0 -11 3 -14 6 -6 3 7 2 16 -1 19 -3 4 -6 -2 -5 -13z"/>
<path d="M2131 1394 c0 -11 3 -14 6 -6 3 7 2 16 -1 19 -3 4 -6 -2 -5 -13z"/>
<path d="M2150 1395 c0 -9 6 -12 15 -9 8 4 15 7 15 9 0 2 -7 5 -15 9 -9 3 -15
0 -15 -9z"/>
<path d="M2543 1395 c0 -8 4 -12 9 -9 5 3 6 10 3 15 -9 13 -12 11 -12 -6z"/>
<path d="M4678 1383 c7 -3 16 -2 19 1 4 3 -2 6 -13 5 -11 0 -14 -3 -6 -6z"/>
<path d="M4758 1383 c6 -2 18 -2 25 0 6 3 1 5 -13 5 -14 0 -19 -2 -12 -5z"/>
<path d="M3588 1374 c-5 -4 -8 -51 -8 -104 0 -53 -4 -100 -10 -106 -6 -6 0
-11 20 -12 17 -1 30 3 30 9 0 6 -9 8 -22 4 -15 -4 -19 -3 -10 3 9 6 12 36 10
111 -2 57 -6 99 -10 95z"/>
<path d="M2111 1354 c0 -11 3 -14 6 -6 3 7 2 16 -1 19 -3 4 -6 -2 -5 -13z"/>
<path d="M2131 1354 c0 -11 3 -14 6 -6 3 7 2 16 -1 19 -3 4 -6 -2 -5 -13z"/>
<path d="M2150 1360 c0 -6 7 -10 15 -10 8 0 15 2 15 4 0 2 -7 6 -15 10 -8 3
-15 1 -15 -4z"/>
<path d="M2072 1330 c0 -14 2 -19 5 -12 2 6 2 18 0 25 -3 6 -5 1 -5 -13z"/>
<path d="M4668 1343 c6 -2 18 -2 25 0 6 3 1 5 -13 5 -14 0 -19 -2 -12 -5z"/>
<path d="M4758 1343 c6 -2 18 -2 25 0 6 3 1 5 -13 5 -14 0 -19 -2 -12 -5z"/>
<path d="M2602 1320 c0 -14 2 -19 5 -12 2 6 2 18 0 25 -3 6 -5 1 -5 -13z"/>
<path d="M2111 1314 c0 -11 3 -14 6 -6 3 7 2 16 -1 19 -3 4 -6 -2 -5 -13z"/>
<path d="M2131 1314 c0 -11 3 -14 6 -6 3 7 2 16 -1 19 -3 4 -6 -2 -5 -13z"/>
<path d="M2158 1313 c7 -3 16 -2 19 1 4 3 -2 6 -13 5 -11 0 -14 -3 -6 -6z"/>
<path d="M2840 1290 c0 -5 5 -10 10 -10 6 0 10 5 10 10 0 6 -4 10 -10 10 -5 0
-10 -4 -10 -10z"/>
<path d="M2111 1274 c0 -11 3 -14 6 -6 3 7 2 16 -1 19 -3 4 -6 -2 -5 -13z"/>
<path d="M2150 1280 c0 -6 7 -10 15 -10 8 0 15 2 15 4 0 2 -7 6 -15 10 -8 3
-15 1 -15 -4z"/>
<path d="M2543 1283 c4 -3 1 -13 -6 -22 -11 -14 -10 -14 5 -2 16 12 16 31 1
31 -4 0 -3 -3 0 -7z"/>
<path d="M1233 1230 c0 -25 2 -35 4 -22 2 12 2 32 0 45 -2 12 -4 2 -4 -23z"/>
<path d="M2111 1234 c0 -11 3 -14 6 -6 3 7 2 16 -1 19 -3 4 -6 -2 -5 -13z"/>
<path d="M2131 1234 c0 -11 3 -14 6 -6 3 7 2 16 -1 19 -3 4 -6 -2 -5 -13z"/>
<path d="M2931 1234 c0 -11 3 -14 6 -6 3 7 2 16 -1 19 -3 4 -6 -2 -5 -13z"/>
<path d="M1908 1193 l-3 -43 90 2 90 2 -82 3 c-46 2 -83 8 -83 13 0 5 35 11
78 13 l77 3 -77 2 c-48 1 -78 6 -78 13 0 7 26 9 75 7 53 -2 75 1 75 9 0 7 -27
13 -79 15 l-79 3 -4 -42z"/>
<path d="M1498 1223 c6 -2 12 -20 12 -39 0 -19 4 -34 8 -34 4 0 6 15 4 34 -3
27 0 35 15 39 10 3 2 5 -17 5 -19 0 -29 -2 -22 -5z"/>
<path d="M1312 1200 c0 -14 2 -19 5 -12 2 6 2 18 0 25 -3 6 -5 1 -5 -13z"/>
<path d="M2670 1200 c12 -23 33 -26 49 -6 13 15 -4 26 -40 26 -17 0 -18 -3 -9
-20z"/>
<path d="M2572 1190 c0 -14 2 -19 5 -12 2 6 2 18 0 25 -3 6 -5 1 -5 -13z"/>
<path d="M1272 1174 c-7 -8 -8 -14 -3 -14 10 0 25 19 20 25 -2 1 -10 -3 -17
-11z"/>
</g>
</svg>
