<svg width="25" height="25" viewBox="0 0 25 25" fill="none" xmlns="http://www.w3.org/2000/svg">
<path d="M21.6454 21.4268L15.6311 15.4411M17.6192 10.4363C17.6214 11.3556 17.4425 12.2663 17.0927 13.1164C16.743 13.9665 16.2292 14.7394 15.5807 15.391C14.9323 16.0425 14.1618 16.56 13.3134 16.9138C12.465 17.2676 11.5551 17.4508 10.6359 17.453C9.71664 17.4552 8.80596 17.2763 7.95585 16.9265C7.10573 16.5768 6.33283 16.063 5.68127 15.4146C5.02972 14.7661 4.51226 13.9957 4.15845 13.1472C3.80465 12.2988 3.62142 11.389 3.61923 10.4697C3.6148 8.6132 4.34805 6.83097 5.65767 5.51509C6.96729 4.1992 8.74601 3.45746 10.6025 3.45304C12.459 3.44861 14.2413 4.18186 15.5571 5.49149C16.873 6.80111 17.6148 8.57982 17.6192 10.4363Z" stroke="white" stroke-width="2" stroke-linecap="round" stroke-linejoin="round"/>
</svg>
